# xmcd
# 
# Track frame offsets:
#     150
#     21762
#     38662
#     61973
#     82960
#     101532
#     136762
#     156364
#     175062
#     189577
#     213820
#     241418
# 
# Disc length: 3546
# 
# Revision: 0
# Processed by: cddbd v1.5.2PL0 Copyright (c) Steve Scherf et al.
# Submitted via: fre:ac v1.0.17
# 
DISCID=910dd80c
DTITLE=THE BLUES POWER - THIS IS THE BLUES POWER
DYEAR=2007
DGENRE=Blues
TTITLE0=I Believe
TTITLE1=Lucille
TTITLE2=The Sky Is Crying
TTITLE3=Got My Mojo Workin'
TTITLE4=Blow Wind Blow
TTITLE5=Long Distance Call
TTITLE6=Come On
TTITLE7=Takin' Care Of Business
TTITLE8=San-Ho-Zay
TTITLE9=Same Old Blues
TTITLE10=Rollin' and Tumblin'
TTITLE11=Steady Rollin' Man
EXTD=
EXTT0=
EXTT1=
EXTT2=
EXTT3=
EXTT4=
EXTT5=
EXTT6=
EXTT7=
EXTT8=
EXTT9=
EXTT10=
EXTT11=
PLAYORDER=
